<mxfile host="app.diagrams.net" modified="2024-02-14T10:20:41.836Z" agent="Mozilla/5.0 (Windows NT 10.0; Win64; x64; rv:122.0) Gecko/20100101 Firefox/122.0" etag="CyxunAY8vPJLB5HVp6QN" version="23.1.3" type="device">
  <diagram id="R2lEEEUBdFMjLlhIrx00" name="Page-1">
    <mxGraphModel dx="1834" dy="774" grid="0" gridSize="10" guides="1" tooltips="1" connect="1" arrows="1" fold="1" page="0" pageScale="1" pageWidth="850" pageHeight="1100" background="#FFFFFF" math="0" shadow="0" extFonts="Permanent Marker^https://fonts.googleapis.com/css?family=Permanent+Marker">
      <root>
        <mxCell id="0" />
        <mxCell id="1" parent="0" />
        <mxCell id="K6tmgAn8JRMVgYOH0Nbh-5" value="&lt;b&gt;&lt;font&gt;Utente&lt;/font&gt;&lt;/b&gt;" style="whiteSpace=wrap;html=1;align=center;strokeColor=#000000;fillColor=#FFFFFF;fontColor=#000000;" parent="1" vertex="1">
          <mxGeometry x="384" y="199" width="100" height="40" as="geometry" />
        </mxCell>
        <mxCell id="K6tmgAn8JRMVgYOH0Nbh-6" value="&lt;div&gt;&lt;font&gt;&lt;b&gt;Operazione&lt;/b&gt;&lt;/font&gt;&lt;/div&gt;" style="whiteSpace=wrap;html=1;align=center;strokeColor=#000000;fillColor=#FFFFFF;fontColor=#000000;" parent="1" vertex="1">
          <mxGeometry x="384" y="416" width="100" height="40" as="geometry" />
        </mxCell>
        <mxCell id="K6tmgAn8JRMVgYOH0Nbh-7" value="&lt;b&gt;&lt;font&gt;Approvazione&lt;/font&gt;&lt;/b&gt;" style="shape=rhombus;perimeter=rhombusPerimeter;whiteSpace=wrap;html=1;align=center;strokeColor=#000000;fillColor=#FFFFFF;fontColor=#000000;" parent="1" vertex="1">
          <mxGeometry x="226" y="298" width="120" height="60" as="geometry" />
        </mxCell>
        <mxCell id="K6tmgAn8JRMVgYOH0Nbh-9" value="&lt;font&gt;&lt;b&gt;Effettua&lt;/b&gt;&lt;/font&gt;" style="shape=rhombus;perimeter=rhombusPerimeter;whiteSpace=wrap;html=1;align=center;strokeColor=#000000;fillColor=#FFFFFF;fontColor=#000000;" parent="1" vertex="1">
          <mxGeometry x="517" y="298" width="120" height="60" as="geometry" />
        </mxCell>
        <mxCell id="K6tmgAn8JRMVgYOH0Nbh-10" value="" style="endArrow=none;html=1;rounded=0;entryX=0.5;entryY=1;entryDx=0;entryDy=0;exitX=0;exitY=0.5;exitDx=0;exitDy=0;strokeColor=#000000;edgeStyle=orthogonalEdgeStyle;fontColor=#000000;" parent="1" source="K6tmgAn8JRMVgYOH0Nbh-6" target="K6tmgAn8JRMVgYOH0Nbh-7" edge="1">
          <mxGeometry width="50" height="50" relative="1" as="geometry">
            <mxPoint x="397" y="428" as="sourcePoint" />
            <mxPoint x="447" y="378" as="targetPoint" />
          </mxGeometry>
        </mxCell>
        <mxCell id="K6tmgAn8JRMVgYOH0Nbh-11" value="" style="endArrow=none;html=1;rounded=0;entryX=0.5;entryY=1;entryDx=0;entryDy=0;exitX=1;exitY=0.5;exitDx=0;exitDy=0;strokeColor=#000000;edgeStyle=orthogonalEdgeStyle;fontColor=#000000;" parent="1" source="K6tmgAn8JRMVgYOH0Nbh-6" target="K6tmgAn8JRMVgYOH0Nbh-9" edge="1">
          <mxGeometry width="50" height="50" relative="1" as="geometry">
            <mxPoint x="397" y="428" as="sourcePoint" />
            <mxPoint x="447" y="378" as="targetPoint" />
          </mxGeometry>
        </mxCell>
        <mxCell id="K6tmgAn8JRMVgYOH0Nbh-12" value="" style="endArrow=none;html=1;rounded=0;entryX=0;entryY=0.5;entryDx=0;entryDy=0;exitX=0.5;exitY=0;exitDx=0;exitDy=0;strokeColor=#000000;edgeStyle=orthogonalEdgeStyle;fontColor=#000000;" parent="1" source="K6tmgAn8JRMVgYOH0Nbh-7" target="K6tmgAn8JRMVgYOH0Nbh-5" edge="1">
          <mxGeometry width="50" height="50" relative="1" as="geometry">
            <mxPoint x="397" y="428" as="sourcePoint" />
            <mxPoint x="447" y="378" as="targetPoint" />
            <Array as="points">
              <mxPoint x="286" y="228" />
              <mxPoint x="384" y="228" />
            </Array>
          </mxGeometry>
        </mxCell>
        <mxCell id="K6tmgAn8JRMVgYOH0Nbh-24" value="&lt;div&gt;&lt;font&gt;0,N&lt;/font&gt;&lt;/div&gt;" style="edgeLabel;html=1;align=center;verticalAlign=middle;resizable=0;points=[];fontColor=#000000;labelBackgroundColor=#FFFFFF;" parent="K6tmgAn8JRMVgYOH0Nbh-12" vertex="1" connectable="0">
          <mxGeometry x="-0.3898" y="-3" relative="1" as="geometry">
            <mxPoint x="-3" y="13" as="offset" />
          </mxGeometry>
        </mxCell>
        <mxCell id="K6tmgAn8JRMVgYOH0Nbh-13" value="" style="endArrow=none;html=1;rounded=0;entryX=1;entryY=0.5;entryDx=0;entryDy=0;exitX=0.5;exitY=0;exitDx=0;exitDy=0;strokeColor=#000000;edgeStyle=orthogonalEdgeStyle;fontColor=#000000;" parent="1" source="K6tmgAn8JRMVgYOH0Nbh-9" target="K6tmgAn8JRMVgYOH0Nbh-5" edge="1">
          <mxGeometry width="50" height="50" relative="1" as="geometry">
            <mxPoint x="397" y="428" as="sourcePoint" />
            <mxPoint x="447" y="378" as="targetPoint" />
            <Array as="points">
              <mxPoint x="577" y="229" />
              <mxPoint x="484" y="229" />
            </Array>
          </mxGeometry>
        </mxCell>
        <mxCell id="K6tmgAn8JRMVgYOH0Nbh-14" value="&lt;font&gt;&lt;u&gt;&lt;b&gt;Username&lt;/b&gt;&lt;/u&gt;&lt;/font&gt;" style="ellipse;whiteSpace=wrap;html=1;align=center;strokeColor=#000000;fillColor=#FFFFFF;fontColor=#000000;" parent="1" vertex="1">
          <mxGeometry x="371" y="75" width="100" height="40" as="geometry" />
        </mxCell>
        <mxCell id="K6tmgAn8JRMVgYOH0Nbh-15" value="&lt;font&gt;&lt;b&gt;Email&lt;/b&gt;&lt;/font&gt;" style="ellipse;whiteSpace=wrap;html=1;align=center;strokeColor=#000000;fillColor=#FFFFFF;fontColor=#000000;" parent="1" vertex="1">
          <mxGeometry x="284" y="109" width="100" height="40" as="geometry" />
        </mxCell>
        <mxCell id="K6tmgAn8JRMVgYOH0Nbh-16" value="&lt;font&gt;&lt;b&gt;Password&lt;/b&gt;&lt;/font&gt;" style="ellipse;whiteSpace=wrap;html=1;align=center;strokeColor=#000000;fillColor=#FFFFFF;fontColor=#000000;" parent="1" vertex="1">
          <mxGeometry x="471" y="106" width="100" height="40" as="geometry" />
        </mxCell>
        <mxCell id="K6tmgAn8JRMVgYOH0Nbh-17" value="&lt;font&gt;&lt;b&gt;Autore&lt;/b&gt;&lt;/font&gt;" style="ellipse;whiteSpace=wrap;html=1;align=center;strokeColor=#000000;fillColor=#FFFFFF;fontColor=#000000;" parent="1" vertex="1">
          <mxGeometry x="193" y="138" width="100" height="40" as="geometry" />
        </mxCell>
        <mxCell id="K6tmgAn8JRMVgYOH0Nbh-18" value="&lt;font&gt;&lt;b&gt;DataIscrizione&lt;/b&gt;&lt;/font&gt;" style="ellipse;whiteSpace=wrap;html=1;align=center;strokeColor=#000000;fillColor=#FFFFFF;fontColor=#000000;" parent="1" vertex="1">
          <mxGeometry x="561" y="138" width="100" height="40" as="geometry" />
        </mxCell>
        <mxCell id="K6tmgAn8JRMVgYOH0Nbh-19" value="" style="endArrow=none;html=1;rounded=0;entryX=1;entryY=1;entryDx=0;entryDy=0;exitX=0;exitY=0.25;exitDx=0;exitDy=0;strokeColor=#000000;edgeStyle=orthogonalEdgeStyle;curved=1;fontColor=#000000;" parent="1" source="K6tmgAn8JRMVgYOH0Nbh-5" target="K6tmgAn8JRMVgYOH0Nbh-17" edge="1">
          <mxGeometry width="50" height="50" relative="1" as="geometry">
            <mxPoint x="397" y="428" as="sourcePoint" />
            <mxPoint x="447" y="378" as="targetPoint" />
          </mxGeometry>
        </mxCell>
        <mxCell id="K6tmgAn8JRMVgYOH0Nbh-20" value="" style="endArrow=none;html=1;rounded=0;entryX=0.5;entryY=1;entryDx=0;entryDy=0;exitX=0.25;exitY=0;exitDx=0;exitDy=0;strokeColor=#000000;edgeStyle=orthogonalEdgeStyle;curved=1;fontColor=#000000;" parent="1" source="K6tmgAn8JRMVgYOH0Nbh-5" target="K6tmgAn8JRMVgYOH0Nbh-15" edge="1">
          <mxGeometry width="50" height="50" relative="1" as="geometry">
            <mxPoint x="397" y="428" as="sourcePoint" />
            <mxPoint x="447" y="378" as="targetPoint" />
          </mxGeometry>
        </mxCell>
        <mxCell id="K6tmgAn8JRMVgYOH0Nbh-21" value="" style="endArrow=none;html=1;rounded=0;entryX=0.5;entryY=1;entryDx=0;entryDy=0;exitX=0.5;exitY=0;exitDx=0;exitDy=0;strokeColor=#000000;edgeStyle=orthogonalEdgeStyle;curved=1;fontColor=#000000;" parent="1" source="K6tmgAn8JRMVgYOH0Nbh-5" target="K6tmgAn8JRMVgYOH0Nbh-14" edge="1">
          <mxGeometry width="50" height="50" relative="1" as="geometry">
            <mxPoint x="397" y="428" as="sourcePoint" />
            <mxPoint x="447" y="378" as="targetPoint" />
            <Array as="points">
              <mxPoint x="434" y="115" />
            </Array>
          </mxGeometry>
        </mxCell>
        <mxCell id="K6tmgAn8JRMVgYOH0Nbh-22" value="" style="endArrow=none;html=1;rounded=0;entryX=0.5;entryY=1;entryDx=0;entryDy=0;exitX=0.75;exitY=0;exitDx=0;exitDy=0;strokeColor=#000000;edgeStyle=orthogonalEdgeStyle;curved=1;fontColor=#000000;" parent="1" source="K6tmgAn8JRMVgYOH0Nbh-5" target="K6tmgAn8JRMVgYOH0Nbh-16" edge="1">
          <mxGeometry width="50" height="50" relative="1" as="geometry">
            <mxPoint x="397" y="428" as="sourcePoint" />
            <mxPoint x="447" y="378" as="targetPoint" />
          </mxGeometry>
        </mxCell>
        <mxCell id="K6tmgAn8JRMVgYOH0Nbh-23" value="" style="endArrow=none;html=1;rounded=0;entryX=0;entryY=1;entryDx=0;entryDy=0;exitX=1;exitY=0.25;exitDx=0;exitDy=0;strokeColor=#000000;edgeStyle=orthogonalEdgeStyle;curved=1;fontColor=#000000;" parent="1" source="K6tmgAn8JRMVgYOH0Nbh-5" target="K6tmgAn8JRMVgYOH0Nbh-18" edge="1">
          <mxGeometry width="50" height="50" relative="1" as="geometry">
            <mxPoint x="397" y="428" as="sourcePoint" />
            <mxPoint x="447" y="378" as="targetPoint" />
          </mxGeometry>
        </mxCell>
        <mxCell id="K6tmgAn8JRMVgYOH0Nbh-25" value="&lt;font&gt;0,1&lt;/font&gt;" style="edgeLabel;html=1;align=center;verticalAlign=middle;resizable=0;points=[];fontColor=#000000;labelBackgroundColor=#FFFFFF;" parent="1" vertex="1" connectable="0">
          <mxGeometry x="289" y="402" as="geometry">
            <mxPoint x="-5" y="-6" as="offset" />
          </mxGeometry>
        </mxCell>
        <mxCell id="K6tmgAn8JRMVgYOH0Nbh-26" value="&lt;font&gt;0,N&lt;/font&gt;" style="edgeLabel;html=1;align=center;verticalAlign=middle;resizable=0;points=[];fontColor=#000000;labelBackgroundColor=#FFFFFF;" parent="1" vertex="1" connectable="0">
          <mxGeometry x="523" y="308" as="geometry">
            <mxPoint x="53" y="-49" as="offset" />
          </mxGeometry>
        </mxCell>
        <mxCell id="K6tmgAn8JRMVgYOH0Nbh-27" value="&lt;div&gt;&lt;font&gt;1,1&lt;/font&gt;&lt;/div&gt;" style="edgeLabel;html=1;align=center;verticalAlign=middle;resizable=0;points=[];fontColor=#000000;labelBackgroundColor=#FFFFFF;" parent="1" vertex="1" connectable="0">
          <mxGeometry x="582" y="402" as="geometry">
            <mxPoint x="-5" y="-6" as="offset" />
          </mxGeometry>
        </mxCell>
        <mxCell id="K6tmgAn8JRMVgYOH0Nbh-29" value="&lt;font&gt;&lt;b&gt;Ora&lt;/b&gt;&lt;/font&gt;" style="ellipse;whiteSpace=wrap;html=1;align=center;strokeColor=#000000;fillColor=#FFFFFF;fontColor=#000000;" parent="1" vertex="1">
          <mxGeometry x="86" y="294" width="100" height="40" as="geometry" />
        </mxCell>
        <mxCell id="K6tmgAn8JRMVgYOH0Nbh-30" value="&lt;font&gt;&lt;b&gt;Data&lt;/b&gt;&lt;/font&gt;" style="ellipse;whiteSpace=wrap;html=1;align=center;strokeColor=#000000;fillColor=#FFFFFF;fontColor=#000000;" parent="1" vertex="1">
          <mxGeometry x="126" y="249" width="100" height="40" as="geometry" />
        </mxCell>
        <mxCell id="K6tmgAn8JRMVgYOH0Nbh-31" value="&lt;font&gt;&lt;b&gt;Risposta&lt;/b&gt;&lt;/font&gt;" style="ellipse;whiteSpace=wrap;html=1;align=center;strokeColor=#000000;fillColor=#FFFFFF;fontColor=#000000;" parent="1" vertex="1">
          <mxGeometry x="120" y="342" width="100" height="40" as="geometry" />
        </mxCell>
        <mxCell id="K6tmgAn8JRMVgYOH0Nbh-32" value="" style="endArrow=none;html=1;rounded=0;entryX=1;entryY=0.5;entryDx=0;entryDy=0;exitX=0;exitY=1;exitDx=0;exitDy=0;strokeColor=#000000;fontColor=#000000;" parent="1" source="K6tmgAn8JRMVgYOH0Nbh-7" target="K6tmgAn8JRMVgYOH0Nbh-31" edge="1">
          <mxGeometry width="50" height="50" relative="1" as="geometry">
            <mxPoint x="17" y="326" as="sourcePoint" />
            <mxPoint x="80" y="495" as="targetPoint" />
          </mxGeometry>
        </mxCell>
        <mxCell id="K6tmgAn8JRMVgYOH0Nbh-33" value="" style="endArrow=none;html=1;rounded=0;entryX=1;entryY=0.5;entryDx=0;entryDy=0;exitX=0;exitY=0.5;exitDx=0;exitDy=0;strokeColor=#000000;fontColor=#000000;" parent="1" source="K6tmgAn8JRMVgYOH0Nbh-7" target="K6tmgAn8JRMVgYOH0Nbh-29" edge="1">
          <mxGeometry width="50" height="50" relative="1" as="geometry">
            <mxPoint x="42" y="316" as="sourcePoint" />
            <mxPoint x="80" y="495" as="targetPoint" />
          </mxGeometry>
        </mxCell>
        <mxCell id="K6tmgAn8JRMVgYOH0Nbh-34" value="" style="endArrow=none;html=1;rounded=0;entryX=1;entryY=1;entryDx=0;entryDy=0;exitX=0;exitY=0;exitDx=0;exitDy=0;strokeColor=#000000;fontColor=#000000;" parent="1" source="K6tmgAn8JRMVgYOH0Nbh-7" target="K6tmgAn8JRMVgYOH0Nbh-30" edge="1">
          <mxGeometry width="50" height="50" relative="1" as="geometry">
            <mxPoint x="92" y="316" as="sourcePoint" />
            <mxPoint x="80" y="495" as="targetPoint" />
          </mxGeometry>
        </mxCell>
        <mxCell id="K6tmgAn8JRMVgYOH0Nbh-35" value="&lt;font&gt;&lt;b&gt;Ora&lt;/b&gt;&lt;/font&gt;" style="ellipse;whiteSpace=wrap;html=1;align=center;strokeColor=#000000;fillColor=#FFFFFF;fontColor=#000000;" parent="1" vertex="1">
          <mxGeometry x="675" y="306.5" width="100" height="40" as="geometry" />
        </mxCell>
        <mxCell id="K6tmgAn8JRMVgYOH0Nbh-36" value="&lt;font&gt;&lt;b&gt;Data&lt;/b&gt;&lt;/font&gt;" style="ellipse;whiteSpace=wrap;html=1;align=center;strokeColor=#000000;fillColor=#FFFFFF;fontColor=#000000;" parent="1" vertex="1">
          <mxGeometry x="649" y="264" width="100" height="40" as="geometry" />
        </mxCell>
        <mxCell id="K6tmgAn8JRMVgYOH0Nbh-37" value="&lt;font&gt;&lt;b&gt;Proposta&lt;/b&gt;&lt;/font&gt;" style="ellipse;whiteSpace=wrap;html=1;align=center;strokeColor=#000000;fillColor=#FFFFFF;fontColor=#000000;" parent="1" vertex="1">
          <mxGeometry x="656" y="350" width="100" height="40" as="geometry" />
        </mxCell>
        <mxCell id="K6tmgAn8JRMVgYOH0Nbh-38" value="" style="endArrow=none;html=1;rounded=0;entryX=0;entryY=0.5;entryDx=0;entryDy=0;exitX=1;exitY=1;exitDx=0;exitDy=0;strokeColor=#000000;fontColor=#000000;" parent="1" source="K6tmgAn8JRMVgYOH0Nbh-9" target="K6tmgAn8JRMVgYOH0Nbh-37" edge="1">
          <mxGeometry width="50" height="50" relative="1" as="geometry">
            <mxPoint x="845" y="355.5" as="sourcePoint" />
            <mxPoint x="669" y="507.5" as="targetPoint" />
          </mxGeometry>
        </mxCell>
        <mxCell id="K6tmgAn8JRMVgYOH0Nbh-39" value="" style="endArrow=none;html=1;rounded=0;entryX=0;entryY=0.5;entryDx=0;entryDy=0;strokeColor=#000000;exitX=1;exitY=0.5;exitDx=0;exitDy=0;fontColor=#000000;" parent="1" source="K6tmgAn8JRMVgYOH0Nbh-9" target="K6tmgAn8JRMVgYOH0Nbh-35" edge="1">
          <mxGeometry width="50" height="50" relative="1" as="geometry">
            <mxPoint x="815" y="341" as="sourcePoint" />
            <mxPoint x="669" y="507.5" as="targetPoint" />
          </mxGeometry>
        </mxCell>
        <mxCell id="K6tmgAn8JRMVgYOH0Nbh-40" value="" style="endArrow=none;html=1;rounded=0;entryX=0;entryY=0.5;entryDx=0;entryDy=0;exitX=1;exitY=0;exitDx=0;exitDy=0;strokeColor=#000000;fontColor=#000000;" parent="1" source="K6tmgAn8JRMVgYOH0Nbh-9" target="K6tmgAn8JRMVgYOH0Nbh-36" edge="1">
          <mxGeometry width="50" height="50" relative="1" as="geometry">
            <mxPoint x="845" y="325.5" as="sourcePoint" />
            <mxPoint x="669" y="507.5" as="targetPoint" />
          </mxGeometry>
        </mxCell>
        <mxCell id="K6tmgAn8JRMVgYOH0Nbh-42" value="&lt;b&gt;&lt;font&gt;Pagina&lt;/font&gt;&lt;/b&gt;" style="whiteSpace=wrap;html=1;align=center;strokeColor=#000000;fillColor=#FFFFFF;fontColor=#000000;" parent="1" vertex="1">
          <mxGeometry x="-118" y="542" width="100" height="48" as="geometry" />
        </mxCell>
        <mxCell id="K6tmgAn8JRMVgYOH0Nbh-43" value="&lt;font&gt;&lt;b&gt;Creazione&lt;/b&gt;&lt;/font&gt;" style="shape=rhombus;perimeter=rhombusPerimeter;whiteSpace=wrap;html=1;align=center;strokeColor=#000000;fillColor=#FFFFFF;fontColor=#000000;" parent="1" vertex="1">
          <mxGeometry x="-128" y="282" width="120" height="60" as="geometry" />
        </mxCell>
        <mxCell id="K6tmgAn8JRMVgYOH0Nbh-44" value="" style="endArrow=none;html=1;rounded=0;entryX=0;entryY=0.5;entryDx=0;entryDy=0;exitX=0.5;exitY=0;exitDx=0;exitDy=0;strokeColor=#000000;edgeStyle=orthogonalEdgeStyle;fontColor=#000000;" parent="1" source="K6tmgAn8JRMVgYOH0Nbh-43" target="K6tmgAn8JRMVgYOH0Nbh-5" edge="1">
          <mxGeometry width="50" height="50" relative="1" as="geometry">
            <mxPoint x="335" y="403" as="sourcePoint" />
            <mxPoint x="385" y="353" as="targetPoint" />
          </mxGeometry>
        </mxCell>
        <mxCell id="K6tmgAn8JRMVgYOH0Nbh-62" value="0,N" style="edgeLabel;html=1;align=center;verticalAlign=middle;resizable=0;points=[];labelBackgroundColor=#FFFFFF;fontColor=#000000;" parent="K6tmgAn8JRMVgYOH0Nbh-44" vertex="1" connectable="0">
          <mxGeometry x="-0.8563" relative="1" as="geometry">
            <mxPoint as="offset" />
          </mxGeometry>
        </mxCell>
        <mxCell id="K6tmgAn8JRMVgYOH0Nbh-45" value="" style="endArrow=none;html=1;rounded=0;entryX=0.5;entryY=1;entryDx=0;entryDy=0;exitX=0.5;exitY=0;exitDx=0;exitDy=0;edgeStyle=orthogonalEdgeStyle;strokeColor=#000000;fontColor=#000000;" parent="1" source="K6tmgAn8JRMVgYOH0Nbh-42" target="K6tmgAn8JRMVgYOH0Nbh-43" edge="1">
          <mxGeometry width="50" height="50" relative="1" as="geometry">
            <mxPoint x="335" y="403" as="sourcePoint" />
            <mxPoint x="385" y="353" as="targetPoint" />
          </mxGeometry>
        </mxCell>
        <mxCell id="K6tmgAn8JRMVgYOH0Nbh-63" value="1,1" style="edgeLabel;html=1;align=center;verticalAlign=middle;resizable=0;points=[];fontColor=#000000;labelBackgroundColor=#FFFFFF;" parent="K6tmgAn8JRMVgYOH0Nbh-45" vertex="1" connectable="0">
          <mxGeometry x="-0.12" y="-2" relative="1" as="geometry">
            <mxPoint x="-2" y="-18" as="offset" />
          </mxGeometry>
        </mxCell>
        <mxCell id="K6tmgAn8JRMVgYOH0Nbh-58" value="&lt;font&gt;&lt;b&gt;Ora&lt;/b&gt;&lt;/font&gt;" style="ellipse;whiteSpace=wrap;html=1;align=center;strokeColor=#000000;fillColor=#FFFFFF;fontColor=#000000;" parent="1" vertex="1">
          <mxGeometry x="-226" y="320" width="100" height="40" as="geometry" />
        </mxCell>
        <mxCell id="K6tmgAn8JRMVgYOH0Nbh-59" value="&lt;font&gt;&lt;b&gt;Data&lt;/b&gt;&lt;/font&gt;" style="ellipse;whiteSpace=wrap;html=1;align=center;strokeColor=#000000;fillColor=#FFFFFF;fontColor=#000000;" parent="1" vertex="1">
          <mxGeometry x="-220" y="261" width="100" height="40" as="geometry" />
        </mxCell>
        <mxCell id="K6tmgAn8JRMVgYOH0Nbh-60" value="" style="endArrow=none;html=1;rounded=0;entryX=1;entryY=0.5;entryDx=0;entryDy=0;exitX=0;exitY=1;exitDx=0;exitDy=0;strokeColor=#000000;fontColor=#000000;" parent="1" source="K6tmgAn8JRMVgYOH0Nbh-43" target="K6tmgAn8JRMVgYOH0Nbh-58" edge="1">
          <mxGeometry width="50" height="50" relative="1" as="geometry">
            <mxPoint x="-116" y="302" as="sourcePoint" />
            <mxPoint x="-262" y="469" as="targetPoint" />
          </mxGeometry>
        </mxCell>
        <mxCell id="K6tmgAn8JRMVgYOH0Nbh-61" value="" style="endArrow=none;html=1;rounded=0;entryX=1;entryY=1;entryDx=0;entryDy=0;exitX=0;exitY=0;exitDx=0;exitDy=0;strokeColor=#000000;fontColor=#000000;" parent="1" source="K6tmgAn8JRMVgYOH0Nbh-43" target="K6tmgAn8JRMVgYOH0Nbh-59" edge="1">
          <mxGeometry width="50" height="50" relative="1" as="geometry">
            <mxPoint x="-86" y="287" as="sourcePoint" />
            <mxPoint x="-262" y="469" as="targetPoint" />
          </mxGeometry>
        </mxCell>
        <mxCell id="K6tmgAn8JRMVgYOH0Nbh-64" value="&lt;b&gt;&lt;font&gt;Riferire&lt;/font&gt;&lt;/b&gt;" style="shape=rhombus;perimeter=rhombusPerimeter;whiteSpace=wrap;html=1;align=center;strokeColor=#000000;fillColor=#FFFFFF;fontColor=#000000;" parent="1" vertex="1">
          <mxGeometry x="374" y="532" width="120" height="60" as="geometry" />
        </mxCell>
        <mxCell id="K6tmgAn8JRMVgYOH0Nbh-65" value="" style="endArrow=none;html=1;rounded=0;entryX=1;entryY=0.5;entryDx=0;entryDy=0;exitX=0;exitY=0.5;exitDx=0;exitDy=0;strokeColor=#000000;fontColor=#000000;" parent="1" source="K6tmgAn8JRMVgYOH0Nbh-64" target="K6tmgAn8JRMVgYOH0Nbh-42" edge="1">
          <mxGeometry width="50" height="50" relative="1" as="geometry">
            <mxPoint x="335" y="403" as="sourcePoint" />
            <mxPoint x="385" y="353" as="targetPoint" />
          </mxGeometry>
        </mxCell>
        <mxCell id="K6tmgAn8JRMVgYOH0Nbh-68" value="0, N" style="edgeLabel;html=1;align=center;verticalAlign=middle;resizable=0;points=[];fontColor=#000000;labelBackgroundColor=#FFFFFF;" parent="K6tmgAn8JRMVgYOH0Nbh-65" vertex="1" connectable="0">
          <mxGeometry x="-0.1633" y="1" relative="1" as="geometry">
            <mxPoint x="-17" y="-3" as="offset" />
          </mxGeometry>
        </mxCell>
        <mxCell id="K6tmgAn8JRMVgYOH0Nbh-66" value="" style="endArrow=none;html=1;rounded=0;entryX=0.5;entryY=0;entryDx=0;entryDy=0;exitX=0.5;exitY=1;exitDx=0;exitDy=0;strokeColor=#000000;fontColor=#000000;" parent="1" source="K6tmgAn8JRMVgYOH0Nbh-6" target="K6tmgAn8JRMVgYOH0Nbh-64" edge="1">
          <mxGeometry width="50" height="50" relative="1" as="geometry">
            <mxPoint x="335" y="403" as="sourcePoint" />
            <mxPoint x="385" y="353" as="targetPoint" />
          </mxGeometry>
        </mxCell>
        <mxCell id="K6tmgAn8JRMVgYOH0Nbh-67" value="1,1" style="edgeLabel;html=1;align=center;verticalAlign=middle;resizable=0;points=[];fontColor=#000000;labelBackgroundColor=#FFFFFF;" parent="K6tmgAn8JRMVgYOH0Nbh-66" vertex="1" connectable="0">
          <mxGeometry x="0.0526" relative="1" as="geometry">
            <mxPoint as="offset" />
          </mxGeometry>
        </mxCell>
        <mxCell id="K6tmgAn8JRMVgYOH0Nbh-69" value="&lt;font&gt;&lt;b&gt;Titolo&lt;/b&gt;&lt;/font&gt;" style="ellipse;whiteSpace=wrap;html=1;align=center;strokeColor=#000000;fillColor=#FFFFFF;fontColor=#000000;" parent="1" vertex="1">
          <mxGeometry x="-269" y="507" width="100" height="40" as="geometry" />
        </mxCell>
        <mxCell id="K6tmgAn8JRMVgYOH0Nbh-70" value="&lt;font&gt;&lt;u&gt;&lt;b&gt;IDPagina&lt;/b&gt;&lt;/u&gt;&lt;/font&gt;" style="ellipse;whiteSpace=wrap;html=1;align=center;strokeColor=#000000;fillColor=#FFFFFF;fontColor=#000000;" parent="1" vertex="1">
          <mxGeometry x="-189" y="475" width="100" height="40" as="geometry" />
        </mxCell>
        <mxCell id="K6tmgAn8JRMVgYOH0Nbh-73" value="" style="endArrow=none;html=1;rounded=0;entryX=1;entryY=1;entryDx=0;entryDy=0;exitX=0;exitY=0.25;exitDx=0;exitDy=0;strokeColor=#000000;fontColor=#000000;" parent="1" source="K6tmgAn8JRMVgYOH0Nbh-42" target="K6tmgAn8JRMVgYOH0Nbh-69" edge="1">
          <mxGeometry width="50" height="50" relative="1" as="geometry">
            <mxPoint x="-129" y="541" as="sourcePoint" />
            <mxPoint x="-275" y="708" as="targetPoint" />
          </mxGeometry>
        </mxCell>
        <mxCell id="K6tmgAn8JRMVgYOH0Nbh-74" value="" style="endArrow=none;html=1;rounded=0;entryX=0.5;entryY=1;entryDx=0;entryDy=0;exitX=0.25;exitY=0;exitDx=0;exitDy=0;strokeColor=#000000;fontColor=#000000;" parent="1" source="K6tmgAn8JRMVgYOH0Nbh-42" target="K6tmgAn8JRMVgYOH0Nbh-70" edge="1">
          <mxGeometry width="50" height="50" relative="1" as="geometry">
            <mxPoint x="-99" y="526" as="sourcePoint" />
            <mxPoint x="-275" y="708" as="targetPoint" />
          </mxGeometry>
        </mxCell>
        <mxCell id="K6tmgAn8JRMVgYOH0Nbh-75" value="&lt;b&gt;&lt;font&gt;Frase&lt;/font&gt;&lt;/b&gt;" style="shape=ext;margin=3;double=1;whiteSpace=wrap;html=1;align=center;fillColor=#FFFFFF;strokeColor=#000000;fontColor=#000000;" parent="1" vertex="1">
          <mxGeometry x="86" y="710" width="100" height="40" as="geometry" />
        </mxCell>
        <mxCell id="K6tmgAn8JRMVgYOH0Nbh-76" value="&lt;b&gt;&lt;font&gt;Comporre&lt;/font&gt;&lt;/b&gt;" style="shape=rhombus;double=1;perimeter=rhombusPerimeter;whiteSpace=wrap;html=1;align=center;strokeColor=#000000;fillColor=#FFFFFF;fontColor=#000000;" parent="1" vertex="1">
          <mxGeometry x="76" y="612" width="120" height="60" as="geometry" />
        </mxCell>
        <mxCell id="K6tmgAn8JRMVgYOH0Nbh-77" value="&lt;div&gt;&lt;b&gt;&lt;font&gt;Collegamento&lt;/font&gt;&lt;/b&gt;&lt;/div&gt;" style="shape=rhombus;perimeter=rhombusPerimeter;whiteSpace=wrap;html=1;align=center;strokeColor=#000000;fillColor=#FFFFFF;fontColor=#000000;" parent="1" vertex="1">
          <mxGeometry x="-128" y="700" width="120" height="60" as="geometry" />
        </mxCell>
        <mxCell id="K6tmgAn8JRMVgYOH0Nbh-79" value="" style="endArrow=none;html=1;rounded=0;exitX=1;exitY=0.75;exitDx=0;exitDy=0;entryX=0.5;entryY=0;entryDx=0;entryDy=0;edgeStyle=orthogonalEdgeStyle;strokeColor=#000000;fontColor=#000000;" parent="1" source="K6tmgAn8JRMVgYOH0Nbh-42" target="K6tmgAn8JRMVgYOH0Nbh-76" edge="1">
          <mxGeometry width="50" height="50" relative="1" as="geometry">
            <mxPoint x="326" y="503" as="sourcePoint" />
            <mxPoint x="376" y="453" as="targetPoint" />
          </mxGeometry>
        </mxCell>
        <mxCell id="K6tmgAn8JRMVgYOH0Nbh-91" value="0,N" style="edgeLabel;html=1;align=center;verticalAlign=middle;resizable=0;points=[];fontColor=#000000;labelBackgroundColor=#FFFFFF;" parent="K6tmgAn8JRMVgYOH0Nbh-79" vertex="1" connectable="0">
          <mxGeometry x="0.8014" relative="1" as="geometry">
            <mxPoint as="offset" />
          </mxGeometry>
        </mxCell>
        <mxCell id="K6tmgAn8JRMVgYOH0Nbh-80" value="" style="endArrow=none;html=1;rounded=0;entryX=0.5;entryY=0;entryDx=0;entryDy=0;exitX=0.5;exitY=1;exitDx=0;exitDy=0;edgeStyle=orthogonalEdgeStyle;strokeColor=#000000;fontColor=#000000;" parent="1" source="K6tmgAn8JRMVgYOH0Nbh-76" target="K6tmgAn8JRMVgYOH0Nbh-75" edge="1">
          <mxGeometry width="50" height="50" relative="1" as="geometry">
            <mxPoint x="326" y="503" as="sourcePoint" />
            <mxPoint x="376" y="453" as="targetPoint" />
          </mxGeometry>
        </mxCell>
        <mxCell id="K6tmgAn8JRMVgYOH0Nbh-92" value="1,1" style="edgeLabel;html=1;align=center;verticalAlign=middle;resizable=0;points=[];fontColor=#000000;labelBackgroundColor=#FFFFFF;" parent="K6tmgAn8JRMVgYOH0Nbh-80" vertex="1" connectable="0">
          <mxGeometry x="0.0351" y="1" relative="1" as="geometry">
            <mxPoint as="offset" />
          </mxGeometry>
        </mxCell>
        <mxCell id="K6tmgAn8JRMVgYOH0Nbh-81" value="" style="endArrow=none;html=1;rounded=0;entryX=1;entryY=0.5;entryDx=0;entryDy=0;exitX=0;exitY=0.5;exitDx=0;exitDy=0;edgeStyle=orthogonalEdgeStyle;strokeColor=#000000;fontColor=#000000;" parent="1" source="K6tmgAn8JRMVgYOH0Nbh-75" target="K6tmgAn8JRMVgYOH0Nbh-77" edge="1">
          <mxGeometry width="50" height="50" relative="1" as="geometry">
            <mxPoint x="326" y="503" as="sourcePoint" />
            <mxPoint x="376" y="453" as="targetPoint" />
          </mxGeometry>
        </mxCell>
        <mxCell id="K6tmgAn8JRMVgYOH0Nbh-94" value="0,1" style="edgeLabel;html=1;align=center;verticalAlign=middle;resizable=0;points=[];fontColor=#000000;labelBackgroundColor=#FFFFFF;" parent="K6tmgAn8JRMVgYOH0Nbh-81" vertex="1" connectable="0">
          <mxGeometry x="0.0674" y="-1" relative="1" as="geometry">
            <mxPoint as="offset" />
          </mxGeometry>
        </mxCell>
        <mxCell id="K6tmgAn8JRMVgYOH0Nbh-82" value="" style="endArrow=none;html=1;rounded=0;exitX=0.5;exitY=1;exitDx=0;exitDy=0;entryX=0.5;entryY=0;entryDx=0;entryDy=0;strokeColor=#000000;fontColor=#000000;" parent="1" source="K6tmgAn8JRMVgYOH0Nbh-42" target="K6tmgAn8JRMVgYOH0Nbh-77" edge="1">
          <mxGeometry width="50" height="50" relative="1" as="geometry">
            <mxPoint x="326" y="503" as="sourcePoint" />
            <mxPoint x="376" y="453" as="targetPoint" />
          </mxGeometry>
        </mxCell>
        <mxCell id="K6tmgAn8JRMVgYOH0Nbh-93" value="0,N" style="edgeLabel;html=1;align=center;verticalAlign=middle;resizable=0;points=[];fontColor=#000000;labelBackgroundColor=#FFFFFF;" parent="K6tmgAn8JRMVgYOH0Nbh-82" vertex="1" connectable="0">
          <mxGeometry x="-0.2273" y="1" relative="1" as="geometry">
            <mxPoint as="offset" />
          </mxGeometry>
        </mxCell>
        <mxCell id="K6tmgAn8JRMVgYOH0Nbh-83" value="&lt;font&gt;&lt;u&gt;&lt;b&gt;Ordine&lt;/b&gt;&lt;/u&gt;&lt;/font&gt;" style="ellipse;whiteSpace=wrap;html=1;align=center;strokeColor=#000000;fillColor=#FFFFFF;fontColor=#000000;" parent="1" vertex="1">
          <mxGeometry x="216" y="694" width="100" height="40" as="geometry" />
        </mxCell>
        <mxCell id="K6tmgAn8JRMVgYOH0Nbh-84" value="&lt;font&gt;&lt;u&gt;&lt;b&gt;Riga&lt;/b&gt;&lt;/u&gt;&lt;/font&gt;" style="ellipse;whiteSpace=wrap;html=1;align=center;strokeColor=#000000;fillColor=#FFFFFF;fontColor=#000000;" parent="1" vertex="1">
          <mxGeometry x="197" y="753" width="100" height="40" as="geometry" />
        </mxCell>
        <mxCell id="K6tmgAn8JRMVgYOH0Nbh-85" value="&lt;font&gt;&lt;b&gt;Collegamento&lt;/b&gt;&lt;/font&gt;" style="ellipse;whiteSpace=wrap;html=1;align=center;strokeColor=#000000;fillColor=#FFFFFF;fontColor=#000000;" parent="1" vertex="1">
          <mxGeometry x="-4" y="775" width="100" height="40" as="geometry" />
        </mxCell>
        <mxCell id="K6tmgAn8JRMVgYOH0Nbh-86" value="&lt;font&gt;&lt;b&gt;Contenuto&lt;/b&gt;&lt;/font&gt;" style="ellipse;whiteSpace=wrap;html=1;align=center;strokeColor=#000000;fillColor=#FFFFFF;fontColor=#000000;" parent="1" vertex="1">
          <mxGeometry x="106" y="782" width="100" height="40" as="geometry" />
        </mxCell>
        <mxCell id="K6tmgAn8JRMVgYOH0Nbh-87" value="" style="endArrow=none;html=1;rounded=0;exitX=1;exitY=0;exitDx=0;exitDy=0;entryX=0.25;entryY=1;entryDx=0;entryDy=0;edgeStyle=orthogonalEdgeStyle;curved=1;strokeColor=#000000;fontColor=#000000;" parent="1" source="K6tmgAn8JRMVgYOH0Nbh-85" target="K6tmgAn8JRMVgYOH0Nbh-75" edge="1">
          <mxGeometry width="50" height="50" relative="1" as="geometry">
            <mxPoint x="326" y="503" as="sourcePoint" />
            <mxPoint x="376" y="453" as="targetPoint" />
          </mxGeometry>
        </mxCell>
        <mxCell id="K6tmgAn8JRMVgYOH0Nbh-88" value="" style="endArrow=none;html=1;rounded=0;exitX=0.5;exitY=0;exitDx=0;exitDy=0;entryX=0.5;entryY=1;entryDx=0;entryDy=0;edgeStyle=orthogonalEdgeStyle;curved=1;strokeColor=#000000;fontColor=#000000;" parent="1" source="K6tmgAn8JRMVgYOH0Nbh-86" target="K6tmgAn8JRMVgYOH0Nbh-75" edge="1">
          <mxGeometry width="50" height="50" relative="1" as="geometry">
            <mxPoint x="344" y="597" as="sourcePoint" />
            <mxPoint x="394" y="547" as="targetPoint" />
          </mxGeometry>
        </mxCell>
        <mxCell id="K6tmgAn8JRMVgYOH0Nbh-89" value="" style="endArrow=none;html=1;rounded=0;entryX=0;entryY=0;entryDx=0;entryDy=0;exitX=1;exitY=0.75;exitDx=0;exitDy=0;edgeStyle=orthogonalEdgeStyle;curved=1;strokeColor=#000000;fontColor=#000000;" parent="1" source="K6tmgAn8JRMVgYOH0Nbh-75" target="K6tmgAn8JRMVgYOH0Nbh-84" edge="1">
          <mxGeometry width="50" height="50" relative="1" as="geometry">
            <mxPoint x="344" y="597" as="sourcePoint" />
            <mxPoint x="394" y="547" as="targetPoint" />
          </mxGeometry>
        </mxCell>
        <mxCell id="K6tmgAn8JRMVgYOH0Nbh-90" value="" style="endArrow=none;html=1;rounded=0;entryX=0;entryY=0;entryDx=0;entryDy=0;exitX=1;exitY=0.25;exitDx=0;exitDy=0;edgeStyle=orthogonalEdgeStyle;curved=1;strokeColor=#000000;fontColor=#000000;" parent="1" source="K6tmgAn8JRMVgYOH0Nbh-75" target="K6tmgAn8JRMVgYOH0Nbh-83" edge="1">
          <mxGeometry width="50" height="50" relative="1" as="geometry">
            <mxPoint x="344" y="597" as="sourcePoint" />
            <mxPoint x="394" y="547" as="targetPoint" />
          </mxGeometry>
        </mxCell>
        <mxCell id="K6tmgAn8JRMVgYOH0Nbh-95" value="&lt;font&gt;&lt;b&gt;FraseCoinvolta&lt;/b&gt;&lt;/font&gt;" style="ellipse;whiteSpace=wrap;html=1;align=center;strokeColor=#000000;fillColor=#FFFFFF;fontColor=#000000;" parent="1" vertex="1">
          <mxGeometry x="251" y="449" width="100" height="40" as="geometry" />
        </mxCell>
        <mxCell id="K6tmgAn8JRMVgYOH0Nbh-96" value="&lt;font&gt;&lt;u&gt;&lt;b&gt;IDOperazione&lt;/b&gt;&lt;/u&gt;&lt;/font&gt;" style="ellipse;whiteSpace=wrap;html=1;align=center;strokeColor=#000000;fillColor=#FFFFFF;fontColor=#000000;" parent="1" vertex="1">
          <mxGeometry x="515" y="446" width="100" height="40" as="geometry" />
        </mxCell>
        <mxCell id="K6tmgAn8JRMVgYOH0Nbh-97" value="&lt;font&gt;&lt;b&gt;FraseModificata&lt;/b&gt;&lt;/font&gt;" style="ellipse;whiteSpace=wrap;html=1;align=center;strokeColor=#000000;fillColor=#FFFFFF;fontColor=#000000;" parent="1" vertex="1">
          <mxGeometry x="306" y="492" width="100" height="40" as="geometry" />
        </mxCell>
        <mxCell id="K6tmgAn8JRMVgYOH0Nbh-98" value="&lt;font&gt;&lt;b&gt;Tipo&lt;/b&gt;&lt;/font&gt;" style="ellipse;whiteSpace=wrap;html=1;align=center;strokeColor=#000000;fillColor=#FFFFFF;fontColor=#000000;" parent="1" vertex="1">
          <mxGeometry x="461" y="496" width="100" height="40" as="geometry" />
        </mxCell>
        <mxCell id="K6tmgAn8JRMVgYOH0Nbh-100" value="&lt;u&gt;&lt;font&gt;&lt;b&gt;Riga&lt;/b&gt;&lt;/font&gt;&lt;/u&gt;" style="ellipse;whiteSpace=wrap;html=1;align=center;strokeColor=#000000;fillColor=#FFFFFF;fontColor=#000000;" parent="1" vertex="1">
          <mxGeometry x="565" y="496" width="100" height="40" as="geometry" />
        </mxCell>
        <mxCell id="K6tmgAn8JRMVgYOH0Nbh-101" value="" style="endArrow=none;html=1;rounded=0;entryX=0;entryY=0.75;entryDx=0;entryDy=0;exitX=1;exitY=0;exitDx=0;exitDy=0;edgeStyle=orthogonalEdgeStyle;curved=1;strokeColor=#000000;fontColor=#000000;" parent="1" source="K6tmgAn8JRMVgYOH0Nbh-95" target="K6tmgAn8JRMVgYOH0Nbh-6" edge="1">
          <mxGeometry width="50" height="50" relative="1" as="geometry">
            <mxPoint x="344" y="497" as="sourcePoint" />
            <mxPoint x="394" y="447" as="targetPoint" />
          </mxGeometry>
        </mxCell>
        <mxCell id="K6tmgAn8JRMVgYOH0Nbh-102" value="" style="endArrow=none;html=1;rounded=0;entryX=0.25;entryY=1;entryDx=0;entryDy=0;exitX=0.5;exitY=0;exitDx=0;exitDy=0;edgeStyle=orthogonalEdgeStyle;strokeColor=#000000;curved=1;fontColor=#000000;" parent="1" source="K6tmgAn8JRMVgYOH0Nbh-97" target="K6tmgAn8JRMVgYOH0Nbh-6" edge="1">
          <mxGeometry width="50" height="50" relative="1" as="geometry">
            <mxPoint x="344" y="497" as="sourcePoint" />
            <mxPoint x="394" y="447" as="targetPoint" />
          </mxGeometry>
        </mxCell>
        <mxCell id="K6tmgAn8JRMVgYOH0Nbh-103" value="" style="endArrow=none;html=1;rounded=0;entryX=1;entryY=0.75;entryDx=0;entryDy=0;exitX=0;exitY=0;exitDx=0;exitDy=0;edgeStyle=orthogonalEdgeStyle;curved=1;strokeColor=#000000;fontColor=#000000;" parent="1" source="K6tmgAn8JRMVgYOH0Nbh-96" target="K6tmgAn8JRMVgYOH0Nbh-6" edge="1">
          <mxGeometry width="50" height="50" relative="1" as="geometry">
            <mxPoint x="344" y="497" as="sourcePoint" />
            <mxPoint x="394" y="447" as="targetPoint" />
          </mxGeometry>
        </mxCell>
        <mxCell id="K6tmgAn8JRMVgYOH0Nbh-104" value="" style="endArrow=none;html=1;rounded=0;entryX=1;entryY=1;entryDx=0;entryDy=0;exitX=0;exitY=0;exitDx=0;exitDy=0;edgeStyle=orthogonalEdgeStyle;curved=1;strokeColor=#000000;fontColor=#000000;" parent="1" source="K6tmgAn8JRMVgYOH0Nbh-100" target="K6tmgAn8JRMVgYOH0Nbh-6" edge="1">
          <mxGeometry width="50" height="50" relative="1" as="geometry">
            <mxPoint x="344" y="497" as="sourcePoint" />
            <mxPoint x="394" y="447" as="targetPoint" />
            <Array as="points">
              <mxPoint x="580" y="493" />
              <mxPoint x="511" y="493" />
              <mxPoint x="511" y="456" />
            </Array>
          </mxGeometry>
        </mxCell>
        <mxCell id="K6tmgAn8JRMVgYOH0Nbh-105" value="" style="endArrow=none;html=1;rounded=0;entryX=0.75;entryY=1;entryDx=0;entryDy=0;exitX=0;exitY=0;exitDx=0;exitDy=0;edgeStyle=orthogonalEdgeStyle;curved=1;strokeColor=#000000;fontColor=#000000;" parent="1" source="K6tmgAn8JRMVgYOH0Nbh-98" target="K6tmgAn8JRMVgYOH0Nbh-6" edge="1">
          <mxGeometry width="50" height="50" relative="1" as="geometry">
            <mxPoint x="344" y="497" as="sourcePoint" />
            <mxPoint x="394" y="447" as="targetPoint" />
          </mxGeometry>
        </mxCell>
        <mxCell id="xr5Xrb0--p2XzQZ0d6nU-1" value="&lt;b&gt;Tema&lt;/b&gt;" style="whiteSpace=wrap;html=1;align=center;" vertex="1" parent="1">
          <mxGeometry x="-256" y="622" width="100" height="40" as="geometry" />
        </mxCell>
        <mxCell id="xr5Xrb0--p2XzQZ0d6nU-2" value="" style="endArrow=none;html=1;rounded=0;exitX=0.5;exitY=0;exitDx=0;exitDy=0;entryX=0;entryY=0.75;entryDx=0;entryDy=0;edgeStyle=orthogonalEdgeStyle;" edge="1" parent="1" source="xr5Xrb0--p2XzQZ0d6nU-1" target="K6tmgAn8JRMVgYOH0Nbh-42">
          <mxGeometry width="50" height="50" relative="1" as="geometry">
            <mxPoint x="228" y="483" as="sourcePoint" />
            <mxPoint x="278" y="433" as="targetPoint" />
          </mxGeometry>
        </mxCell>
        <mxCell id="xr5Xrb0--p2XzQZ0d6nU-3" value="" style="endArrow=none;html=1;rounded=0;exitX=0.5;exitY=1;exitDx=0;exitDy=0;entryX=0.5;entryY=0;entryDx=0;entryDy=0;edgeStyle=orthogonalEdgeStyle;curved=1;" edge="1" parent="1" source="xr5Xrb0--p2XzQZ0d6nU-1" target="xr5Xrb0--p2XzQZ0d6nU-4">
          <mxGeometry width="50" height="50" relative="1" as="geometry">
            <mxPoint x="228" y="483" as="sourcePoint" />
            <mxPoint x="-206" y="701" as="targetPoint" />
          </mxGeometry>
        </mxCell>
        <mxCell id="xr5Xrb0--p2XzQZ0d6nU-4" value="&lt;b&gt;&lt;u&gt;Nome&lt;/u&gt;&lt;/b&gt;" style="ellipse;whiteSpace=wrap;html=1;align=center;" vertex="1" parent="1">
          <mxGeometry x="-322" y="694" width="100" height="40" as="geometry" />
        </mxCell>
      </root>
    </mxGraphModel>
  </diagram>
</mxfile>
